<?xml version="1.0" encoding="UTF-8"?>
<svg xmlns="http://www.w3.org/2000/svg" width="368" height="64" viewBox="0 0 368 64" fill="none">
  <g clip-path="url(#clip0_1612_1115)">
    <path fill-rule="evenodd" clip-rule="evenodd" d="M48.4786 29.7452C50.0919 20.8535 43.6387 23.9376 40.773 15.9089C38.1053 8.41065 45.4643 -0.79943 54.8752 2.97798C48.4574 3.9966 47.0634 12.8671 49.6886 15.5127C55.0521 20.9242 54.5992 27.6584 48.4786 29.7452Z" fill="#E30613"></path>
    <path fill-rule="evenodd" clip-rule="evenodd" d="M88.1182 59.4767C90.7999 60.849 93.6798 61.6555 96.5102 61.6555C102.022 61.6555 105.956 58.1752 105.956 53.4994C105.956 50.0969 104.053 47.8616 100.572 47.0551L98.0173 46.5105C97.1682 46.3053 96.7861 45.9658 96.7861 45.4777C96.7861 44.6713 97.423 44.2539 98.6188 44.2539C99.9986 44.2539 101.301 44.7208 103.077 45.9658L105.235 40.1794C102.878 38.8283 100.904 38.2271 98.4702 38.2271C92.9085 38.2271 88.847 41.6861 88.847 46.4397C88.847 49.6371 90.8778 51.8724 94.2105 52.4949L96.5102 52.9618C97.5079 53.0962 97.9395 53.5064 97.9395 54.1077C97.9395 54.9354 97.1045 55.48 95.9795 55.48C94.4723 55.48 92.6467 54.8009 91.3943 53.7682L90.5452 53.0891L88.1182 59.4767Z" fill="white"></path>
    <path fill-rule="evenodd" clip-rule="evenodd" d="M74.1569 47.8613V53.2162H77.7656C77.3694 54.4399 76.1877 55.1898 74.631 55.1898C72.1827 55.1898 70.4987 53.1596 70.4987 50.3018C70.4987 47.3166 72.3313 45.1308 74.8857 45.1308C76.2655 45.1308 77.1146 45.5977 77.893 46.8427L85.3085 43.9636C84.6363 42.6833 84.0561 42.0113 82.7541 40.9219C80.4545 39.0969 77.7727 38.2126 74.5602 38.2126C67.3428 38.2126 62.4888 42.9662 62.4888 49.9622C62.4888 56.8238 67.3499 61.6552 74.4329 61.6552C77.9637 61.6552 81.3743 60.1485 83.674 57.708C85.7614 55.4727 86.4831 52.9544 86.4123 47.8613H74.1569Z" fill="white"></path>
    <path fill-rule="evenodd" clip-rule="evenodd" d="M41.6436 61.224H49.3846V53.9663L49.5119 53.8885C49.5686 54.1502 49.6393 54.228 49.7667 54.5675L52.9225 61.224H62.0929L57.1822 53.556C56.9133 53.1457 56.6586 52.9335 56.0005 52.5232V52.3322C57.5077 51.8441 58.286 51.448 58.8804 50.7548C59.7295 49.7432 60.2602 48.1021 60.2602 46.3407C60.2602 43.5041 59.0856 41.3254 56.7081 39.8187C55.2788 38.8779 53.8282 38.5383 51.4861 38.5383H41.6436V61.224ZM49.3846 48.6539V44.7845H50.7644C51.8187 44.7845 52.5192 45.5909 52.5192 46.7581C52.5192 47.9253 51.7409 48.6539 50.4318 48.6539H49.3846Z" fill="white"></path>
    <path fill-rule="evenodd" clip-rule="evenodd" d="M24.2793 61.2452H32.2184V53.2943H38.0561V47.3169H32.2184V45.0038H38.8344V38.5596H24.2793V61.2452Z" fill="white"></path>
    <path fill-rule="evenodd" clip-rule="evenodd" d="M0.348633 38.5596V52.8981C0.348633 55.473 1.34633 57.8427 2.97379 59.215C4.80644 60.7783 7.50236 61.6555 10.644 61.6555C16.8071 61.6555 20.5432 58.0479 20.5432 52.2757V38.5525H12.6961V51.5188C12.6961 53.6975 12.0946 54.4332 10.4459 54.4332C9.0166 54.4332 8.23117 53.4923 8.23117 51.5188V38.5596H0.348633Z" fill="white"></path>
    <path fill-rule="evenodd" clip-rule="evenodd" d="M46.1575 34.9092C46.7943 34.9092 47.318 35.4539 47.318 36.1117C47.318 36.7908 46.7943 37.3143 46.1575 37.3143C45.5207 37.3143 44.9971 36.7908 44.9971 36.1117C44.9971 35.4539 45.5207 34.9092 46.1575 34.9092Z" fill="white"></path>
    <path fill-rule="evenodd" clip-rule="evenodd" d="M52.6251 34.9092C53.276 34.9092 53.7855 35.4539 53.7855 36.1117C53.7855 36.7908 53.276 37.3143 52.6251 37.3143C51.9882 37.3143 51.4858 36.7908 51.4858 36.1117C51.4858 35.4539 51.9882 34.9092 52.6251 34.9092Z" fill="white"></path>
    <path fill-rule="evenodd" clip-rule="evenodd" d="M49.3987 34.9092C50.0143 34.9092 50.5379 35.4539 50.5379 36.1117C50.5379 36.7908 50.0143 37.3143 49.3987 37.3143C48.7477 37.3143 48.2383 36.7908 48.2383 36.1117C48.2383 35.4539 48.7477 34.9092 49.3987 34.9092Z" fill="white"></path>
    <path fill-rule="evenodd" clip-rule="evenodd" d="M66.6924 30.3608H32.0913C43.6179 34.8386 55.1658 34.8386 66.6924 30.3608Z" fill="white"></path>
    <path fill-rule="evenodd" clip-rule="evenodd" d="M58.3705 8.8566C57.1534 9.40129 54.7972 11.7922 58.4625 14.9825C62.8141 18.7811 60.472 30.8632 49.9077 29.7384C54.967 28.833 56.5024 21.6531 53.8065 18.4982C50.2544 14.3883 53.1343 8.48169 58.3705 8.8566Z" fill="#E30613"></path>
    <path fill-rule="evenodd" clip-rule="evenodd" d="M47.6933 29.5897C44.1765 24.5178 43.7237 28.1255 38.8272 25.4516C35.0557 23.386 33.1877 16.0717 39.3862 12.1458C37.5394 15.8878 38.0276 20.0967 42.1953 22.0915C45.9526 23.8812 48.2735 24.7088 47.6933 29.5897Z" fill="#E30613"></path>
    <path fill-rule="evenodd" clip-rule="evenodd" d="M363.341 47.1754H359.867V60.8844H367.452V57.8639H363.341V47.1754ZM349.854 47.1754H346.38V55.1193C346.38 57.1353 346.677 58.2176 347.35 59.1867C348.284 60.4671 350.038 61.2806 352.02 61.2806C354.001 61.2806 355.529 60.6227 356.612 59.307C357.581 58.1823 357.921 57.1353 357.921 55.1264V47.1754H354.482V54.61C354.482 56.046 354.447 56.4704 354.15 57.0151C353.775 57.6376 352.989 58.0974 352.098 58.0974C351.312 58.0974 350.605 57.6729 350.194 57.0505C349.897 56.4704 349.854 56.1945 349.854 54.61V47.1754ZM344.548 47.9536C343.203 47.2532 341.71 46.8713 340.323 46.8713C337.67 46.8713 335.837 48.7317 335.837 51.5187C335.837 52.6788 336.17 53.5348 336.849 54.1926C337.337 54.5817 337.896 54.8929 339.425 55.3174C340.995 55.8196 341.477 56.1733 341.477 56.9019C341.477 57.68 340.804 58.2176 339.793 58.2176C338.781 58.2176 337.847 57.7932 336.764 56.8241L335.306 59.7314C336.686 60.7005 338.292 61.2806 339.899 61.2806C341.165 61.2806 342.29 60.934 343.189 60.3539C344.456 59.498 345.022 58.2247 345.022 56.3643C345.022 54.3907 344.088 53.266 341.809 52.5657L341.024 52.3322C340.5 52.1412 340.465 52.1412 340.316 52.0634C339.757 51.7946 339.418 51.4056 339.418 51.0165C339.418 50.3586 340.09 49.814 340.875 49.814C341.661 49.814 342.368 50.0828 343.118 50.7831L344.548 47.9536ZM321.99 46.7864C320.235 46.7864 318.593 47.3664 317.355 48.3355C315.713 49.6937 314.666 51.8229 314.666 53.9521C314.666 58.2884 317.765 61.4291 321.99 61.4291C326.136 61.4291 329.271 58.2106 329.271 54.0724C329.271 52.2544 328.712 50.585 327.587 49.2693C326.136 47.6423 324.303 46.7864 321.99 46.7864ZM302.34 60.8915H307.385C310.859 60.8915 313.888 57.7508 313.888 54.037C313.888 50.3586 310.859 47.1825 307.385 47.1825H302.34V60.8915ZM295.696 50.2384V47.1754H288.188V60.8844H295.696V57.8639H291.627V55.5013H295.476V52.4808H291.627V50.2313H295.696V50.2384ZM275.225 60.8915H280.306C283.78 60.8915 286.766 57.7508 286.766 54.037C286.766 50.3586 283.78 47.1825 280.306 47.1825H275.225V60.8915ZM260.097 60.8915H263.536V52.5232L269.847 60.8915H273.286V47.1754H269.847V55.5437L263.536 47.1754H260.097V60.8915ZM254.903 58.5289L255.724 60.8915H259.425L254.422 47.1825H250.721L245.641 60.8915H249.228L250.162 58.5289H254.903ZM242.053 55.2749C242.874 55.1193 243.249 54.9283 243.695 54.5393C244.48 53.8389 244.969 52.6789 244.969 51.4056C244.969 50.3233 244.558 49.1985 243.851 48.4204C243.065 47.5716 242.096 47.1825 240.603 47.1825H235.26V60.8915H238.699V55.664L241.947 60.8915H246.242L242.053 55.2749ZM227.109 53.2943V56.046H229.911C229.833 56.7463 229.727 57.0929 229.423 57.4395C228.935 58.0974 228.156 58.444 227.222 58.444C226.288 58.444 225.538 58.1327 224.944 57.5881C224.158 56.7392 223.677 55.4589 223.677 54.1007C223.677 51.6602 225.17 49.8423 227.116 49.8423C228.461 49.8423 229.359 50.5426 229.954 52.0139L233.201 50.6204C231.97 47.9889 230.067 46.7864 227.265 46.7864C223.005 46.7864 220.09 49.7291 220.09 54.1078C220.09 58.444 222.97 61.4291 227.151 61.4291C229.918 61.4291 232.006 60.071 233.166 57.6729C233.69 56.5482 233.874 55.3881 233.916 53.2943H227.109ZM206.787 46.7864C205.032 46.7864 203.348 47.3664 202.152 48.3355C200.468 49.6937 199.428 51.8229 199.428 53.9521C199.428 58.2884 202.527 61.4291 206.787 61.4291C210.934 61.4291 214.068 58.2106 214.068 54.0724C214.068 52.2544 213.474 50.585 212.349 49.2693C210.934 47.6423 209.066 46.7864 206.787 46.7864ZM198.084 47.1754H194.645V60.8844H198.084V47.1754ZM189.869 55.2749C190.654 55.1193 191.064 54.9283 191.475 54.5393C192.26 53.8389 192.741 52.6789 192.741 51.4056C192.741 50.3233 192.331 49.1985 191.623 48.4204C190.838 47.5716 189.904 47.1825 188.411 47.1825H183.069V60.8915H186.508V55.664L189.72 60.8915H194.015L189.869 55.2749ZM169.136 46.7864C167.381 46.7864 165.733 47.3664 164.502 48.3355C162.818 49.6937 161.813 51.8229 161.813 53.9521C161.813 58.2884 164.912 61.4291 169.136 61.4291C173.283 61.4291 176.417 58.2106 176.417 54.0724C176.417 52.2544 175.823 50.585 174.733 49.2693C173.283 47.6423 171.457 46.7864 169.136 46.7864ZM149.451 60.8915H154.532C158.006 60.8915 161.034 57.7508 161.034 54.037C161.034 50.3586 158.006 47.1825 154.532 47.1825H149.451V60.8915ZM321.99 50.2384C324.042 50.2384 325.726 51.9432 325.726 54.0724C325.726 56.2016 324.042 57.9488 321.99 57.9488C319.938 57.9488 318.289 56.2087 318.289 54.0724C318.289 51.9432 319.938 50.2384 321.99 50.2384ZM305.779 57.8639V50.2384H306.564C307.831 50.2384 308.659 50.5496 309.366 51.3631C309.961 52.0634 310.336 52.9901 310.336 54.037C310.336 55.0839 309.961 56.0106 309.366 56.7109C308.659 57.5244 307.838 57.871 306.564 57.871H305.779V57.8639ZM278.657 57.8639V50.2384H279.442C280.709 50.2384 281.572 50.5496 282.28 51.3631C282.874 52.0634 283.214 52.9901 283.214 54.037C283.214 55.0839 282.881 56.0106 282.28 56.7109C281.572 57.5244 280.709 57.871 279.442 57.871H278.657V57.8639ZM253.969 55.8125H251.096L252.589 51.3985L253.969 55.8125ZM238.692 53.3367V49.9271H239.329C239.966 49.9271 240.49 50.0828 240.822 50.3162C241.155 50.585 241.416 51.1297 241.416 51.6319C241.416 52.0988 241.155 52.6788 240.822 52.9901C240.49 53.2235 239.966 53.3367 239.329 53.3367H238.692ZM206.787 50.2384C208.839 50.2384 210.488 51.9432 210.488 54.0724C210.488 56.2016 208.846 57.9488 206.787 57.9488C204.735 57.9488 203.051 56.2087 203.051 54.0724C203.058 51.9432 204.735 50.2384 206.787 50.2384ZM186.508 53.3367V49.9271H187.102C187.774 49.9271 188.262 50.0828 188.595 50.3162C188.97 50.585 189.232 51.1297 189.232 51.6319C189.232 52.0988 188.97 52.6788 188.595 52.9901C188.262 53.2235 187.774 53.3367 187.102 53.3367H186.508ZM169.136 50.2384C171.188 50.2384 172.872 51.9432 172.872 54.0724C172.872 56.2016 171.188 57.9488 169.136 57.9488C167.084 57.9488 165.4 56.2087 165.4 54.0724C165.4 51.9432 167.084 50.2384 169.136 50.2384ZM152.89 57.8639V50.2384H153.675C154.985 50.2384 155.805 50.5496 156.513 51.3631C157.107 52.0634 157.447 52.9901 157.447 54.037C157.447 55.0839 157.114 56.0106 156.513 56.7109C155.805 57.5244 154.985 57.871 153.675 57.871H152.89V57.8639Z" fill="white"></path>
    <path fill-rule="evenodd" clip-rule="evenodd" d="M363.193 28.4296H359.754V42.1386H367.297V39.0757H363.186V28.4296H363.193ZM354.037 39.776L354.858 42.1386H358.558L353.591 28.4296H349.855L344.775 42.1386H348.397L349.296 39.776H354.037ZM340.706 36.522C341.491 36.3664 341.902 36.1754 342.312 35.7864C343.133 35.0861 343.579 33.926 343.579 32.6527C343.579 31.5279 343.204 30.4456 342.496 29.6675C341.675 28.8116 340.741 28.4296 339.206 28.4296H333.864V42.1386H337.302V36.9111L340.593 42.1386H344.852L340.706 36.522ZM332.038 31.4855V28.4225H324.495V42.1316H332.038V39.0686H327.927V36.7555H331.776V33.6925H327.927V31.4855H332.038ZM311.044 42.1386H316.124C319.599 42.1386 322.585 38.9625 322.585 35.2841C322.585 31.5633 319.599 28.4296 316.124 28.4296H311.044V42.1386ZM309.176 31.4855V28.4225H301.633V42.1316H309.176V39.0686H305.065V36.7555H308.914V33.6925H305.065V31.4855H309.176ZM299.878 31.4855V28.4225H292.335V42.1316H295.774V36.7555H299.545V33.6925H295.774V31.4855H299.878ZM284.75 31.4855V28.4225H277.207V42.1316H284.75V39.0686H280.639V36.7555H284.488V33.6925H280.639V31.4855H284.75ZM263.756 42.1386H268.801C272.275 42.1386 275.303 38.9625 275.303 35.2841C275.303 31.5633 272.275 28.4296 268.801 28.4296H263.756V42.1386ZM258.038 39.776L258.859 42.1386H262.56L257.557 28.4296H253.821L248.741 42.1386H252.363L253.262 39.776H258.038ZM237.087 42.1386H242.132C245.641 42.1386 248.634 38.9625 248.634 35.2841C248.634 31.5633 245.648 28.4296 242.132 28.4296H237.087V42.1386ZM234.617 28.4296H231.178V42.1386H234.617V28.4296ZM228.794 29.2007C227.449 28.5004 225.992 28.0759 224.612 28.0759C221.958 28.0759 220.133 29.9717 220.133 32.7234C220.133 33.926 220.43 34.7748 221.145 35.3973C221.59 35.8217 222.192 36.0976 223.685 36.5574C225.291 37.0596 225.737 37.3709 225.737 38.1066C225.737 38.9201 225.1 39.4647 224.095 39.4647C223.048 39.4647 222.114 39.0403 221.031 38.0712L219.574 40.9361C220.954 41.9406 222.56 42.4852 224.166 42.4852C225.44 42.4852 226.558 42.174 227.456 41.5586C228.723 40.7451 229.324 39.4647 229.324 37.6043C229.324 35.6307 228.39 34.506 226.077 33.8057L225.326 33.5369C224.803 33.3813 224.767 33.3813 224.619 33.3035C224.025 33.0347 223.685 32.6456 223.685 32.2565C223.685 31.5562 224.357 31.054 225.143 31.054C225.963 31.054 226.671 31.3228 227.421 31.9807L228.794 29.2007ZM214.861 36.522C215.647 36.3664 216.057 36.1754 216.467 35.7864C217.288 35.0861 217.741 33.926 217.741 32.6527C217.741 31.5279 217.366 30.4456 216.659 29.6675C215.838 28.8116 214.904 28.4296 213.368 28.4296H208.026V42.1386H211.465V36.9111L214.755 42.1386H219.015L214.861 36.522ZM206.193 31.4855V28.4225H198.65V42.1316H206.193V39.0686H202.082V36.7555H205.931V33.6925H202.082V31.4855H206.193ZM187.478 28.4296H183.706L189.275 42.1386H191.964L197.568 28.4296H193.867L190.655 36.7555L187.478 28.4296ZM182.659 28.4296H179.185V42.1386H182.659V28.4296ZM163.575 42.1386H167.014V33.7703L173.29 42.1386H176.765V28.4296H173.29V36.7979L167.014 28.4296H163.575V42.1386ZM153.004 28.4296H149.565V36.3735C149.565 38.3471 149.862 39.4718 150.534 40.4409C151.433 41.7213 153.223 42.4923 155.204 42.4923C157.186 42.4923 158.679 41.8698 159.797 40.5541C160.731 39.4294 161.106 38.3471 161.106 36.3735V28.4296H157.667V35.8642C157.667 37.3002 157.589 37.6821 157.292 38.2268C156.959 38.8847 156.174 39.3516 155.275 39.3516C154.49 39.3516 153.747 38.9271 153.372 38.3046C153.039 37.6821 152.997 37.4133 152.997 35.8642V28.4296H153.004ZM353.103 37.0667H350.265L351.688 32.6527L353.103 37.0667ZM337.302 34.5838V31.1742H337.975C338.611 31.1742 339.093 31.2874 339.432 31.5209C339.765 31.8321 340.069 32.3768 340.069 32.8366C340.069 33.3388 339.772 33.9189 339.432 34.1948C339.093 34.4636 338.611 34.5838 337.975 34.5838H337.302ZM314.483 39.0827V31.4855H315.268C316.535 31.4855 317.363 31.7967 318.07 32.6102C318.665 33.3105 319.04 34.2372 319.04 35.2841C319.04 36.331 318.665 37.2577 318.07 37.958C317.363 38.7715 316.542 39.0827 315.268 39.0827H314.483ZM267.195 39.0827V31.4855H267.98C269.247 31.4855 270.074 31.7967 270.782 32.6102C271.376 33.3105 271.751 34.2372 271.751 35.2841C271.751 36.331 271.376 37.2577 270.782 37.958C270.074 38.7715 269.254 39.0827 267.98 39.0827H267.195ZM257.069 37.0667H254.231L255.689 32.6527L257.069 37.0667ZM240.518 39.0827V31.4855H241.304C242.57 31.4855 243.398 31.7967 244.106 32.6102C244.7 33.3105 245.075 34.2372 245.075 35.2841C245.075 36.331 244.7 37.2577 244.106 37.958C243.398 38.7715 242.577 39.0827 241.304 39.0827H240.518ZM211.458 34.5838V31.1742H212.13C212.767 31.1742 213.248 31.2874 213.588 31.5209C213.92 31.8321 214.224 32.3768 214.224 32.8366C214.224 33.3388 213.927 33.9189 213.588 34.1948C213.255 34.4636 212.767 34.5838 212.13 34.5838H211.458Z" fill="white"></path>
    <path d="M127.212 28.0759H125.833V61.6552H127.212V28.0759Z" fill="white"></path>
  </g>
  <defs>
    <clipPath id="clip0_1612_1115">
      <rect width="367.484" height="64" fill="white" transform="translate(-0.000244141)"></rect>
    </clipPath>
  </defs>
</svg>
