<svg width="109" height="110" viewBox="0 0 109 110" fill="none" xmlns="http://www.w3.org/2000/svg">
<path d="M50.7367 0.103722C44.172 0.480583 37.0613 2.35191 30.8086 5.34082C15.2873 12.7871 3.91282 27.6407 0.805963 44.5346C0.103995 48.2773 0 49.6158 0 54.411C0 59.2193 0.0779964 60.1809 0.727967 64.0145C3.24985 78.7512 11.8035 91.7465 24.5689 100.245C29.2877 103.39 35.6704 106.171 41.2731 107.549C43.106 107.991 46.7329 108.627 48.8778 108.887C51.1267 109.147 58.3023 109.108 60.5772 108.822C64.516 108.315 66.8169 107.848 70.1968 106.847C78.9974 104.248 86.888 99.4527 93.4657 92.7341C102.292 83.7024 107.492 72.6044 108.805 59.973C109.065 57.4519 109.065 51.9939 108.805 49.2649C107.83 39.1416 104.19 29.785 98.0415 21.6759C91.6718 13.255 83.0142 6.83528 73.1866 3.24858C66.154 0.688515 58.7443 -0.351112 50.7367 0.103722ZM60.2522 0.662521C68.8318 1.63717 76.9435 4.5611 84.1711 9.30439C90.5148 13.4629 96.2606 19.3108 100.173 25.6265C104.567 32.6829 107.076 39.8303 108.181 48.3682C108.48 50.6684 108.506 57.8288 108.246 60.064C106.985 70.4602 103.488 79.245 97.4305 87.2241C90.6318 96.2039 80.8303 103 70.0018 106.249C64.88 107.783 59.9532 108.484 54.3375 108.484C50.4247 108.484 46.9798 108.147 43.418 107.406C26.9088 104.027 12.8564 92.994 5.53775 77.6726C-0.376983 65.2881 -1.31294 50.9543 2.93787 37.816C5.57674 29.655 10.0615 22.3257 16.1843 16.2049C25.4658 6.91325 37.5163 1.45523 51.0227 0.428604C52.5176 0.324646 58.5623 0.46759 60.2522 0.662521Z" fill="black"/>
<path d="M54.4285 3.93733C54.3635 4.08027 54.2595 5.21086 54.2075 6.47141C54.1295 8.4207 54.1425 8.77157 54.3115 8.91452C54.4415 9.01848 55.0005 9.08346 55.8584 9.09646C57.0154 9.10945 57.2754 9.08346 57.7434 8.82355C58.8223 8.25176 59.4073 6.99122 59.1083 5.86063C58.8873 5.04193 58.5363 4.5741 57.8214 4.15825C57.3144 3.85935 57.0414 3.80737 55.8974 3.75539C54.6885 3.70341 54.5455 3.71641 54.4285 3.93733ZM56.6774 4.89898C56.9894 4.96395 57.3404 5.17188 57.5744 5.43178C57.9124 5.80865 57.9384 5.91261 57.8864 6.56237C57.8344 7.17315 57.7564 7.34209 57.4054 7.65398C57.0414 7.97886 56.8984 8.01785 56.1314 8.01785H55.2735L55.3645 7.3291C55.4035 6.96523 55.4425 6.2245 55.4425 5.70469C55.4425 4.76902 55.4425 4.76902 55.8064 4.76902C56.0014 4.76902 56.3914 4.834 56.6774 4.89898Z" fill="black"/>
<path d="M48.2538 4.27522C48.1498 4.44416 47.7858 5.4448 47.4478 6.52341C46.5509 9.36938 46.5899 9.14846 46.8498 9.46034C47.2008 9.90218 47.5778 9.69426 47.8378 8.92754L48.0458 8.30376L48.9817 8.2128C49.5017 8.17381 50.0087 8.10883 50.1257 8.06985C50.2427 8.03086 50.4767 8.22579 50.7367 8.60266C51.1526 9.18744 51.4776 9.33039 51.7766 9.0315C51.8676 8.94053 51.9326 8.77159 51.9326 8.65464C51.9326 8.53768 51.3606 7.44607 50.6457 6.25051C49.3977 4.10629 49.3587 4.0543 48.9038 4.01532C48.5398 3.97633 48.3968 4.04131 48.2538 4.27522ZM49.4497 6.34148L49.8527 7.06921L49.1767 7.14718C48.7998 7.17317 48.4748 7.19916 48.4488 7.17317C48.4228 7.16018 48.5138 6.75732 48.6438 6.2765C48.7608 5.80867 48.9038 5.4578 48.9557 5.52277C49.0077 5.57475 49.2287 5.93862 49.4497 6.34148Z" fill="black"/>
<path d="M62.3451 4.56111C62.2541 4.66508 62.0072 5.79567 61.7992 7.0692L61.4092 9.38237L61.6952 9.60329C62.0202 9.87619 62.0851 9.88918 62.3711 9.66826C62.6571 9.46034 63.4241 4.97696 63.2291 4.62609C63.0731 4.34019 62.5531 4.30121 62.3451 4.56111Z" fill="black"/>
<path d="M40.6361 5.62671C39.5572 5.9256 39.3232 6.06855 39.3232 6.45841C39.3232 6.88726 40.4931 10.9288 40.6491 11.0328C40.9091 11.1887 41.2211 11.1497 41.4031 10.9418C41.5591 10.7469 41.5331 10.1621 41.3381 9.49931C41.2601 9.26539 41.3121 9.21341 41.7151 9.13544C42.1311 9.05747 42.274 9.10945 43.015 9.64226C43.912 10.279 44.4319 10.383 44.6529 9.98013C44.8479 9.61627 44.7179 9.39535 44.003 8.91452L43.379 8.48568L43.691 8.10881C44.315 7.36808 43.99 5.95159 43.106 5.48376C42.573 5.22386 41.9361 5.24985 40.6361 5.62671ZM42.703 6.70532C43.041 7.35509 42.755 7.75794 41.6891 8.06983C41.1691 8.21277 40.9871 8.22577 40.9481 8.10881C40.8051 7.70596 40.6101 6.82228 40.6491 6.78329C40.8051 6.65334 41.5591 6.47141 42.0141 6.47141C42.43 6.45841 42.599 6.52339 42.703 6.70532Z" fill="black"/>
<path d="M67.3369 5.83465C66.7129 6.05557 66.258 6.43243 65.92 7.01722C65.205 8.21279 65.361 9.40835 66.349 10.357C67.4929 11.4746 69.0918 11.5656 70.2228 10.5779C71.4187 9.52531 71.4967 7.55003 70.3658 6.49741C69.6248 5.79566 68.2729 5.50977 67.3369 5.83465ZM69.0398 6.96524C69.8718 7.3421 70.1968 8.21279 69.8198 9.10946C69.4428 10.0061 68.4289 10.357 67.5319 9.90217C66.5049 9.36937 66.5179 7.52404 67.5579 7.01722C68.2599 6.66635 68.3769 6.66635 69.0398 6.96524Z" fill="black"/>
<path d="M74.5646 8.1868C74.2006 8.62864 72.5887 12.2543 72.6277 12.5532C72.6667 12.8261 72.8877 12.9821 74.0316 13.5539C74.7856 13.9307 75.4875 14.2426 75.6045 14.2426C75.8905 14.2556 76.1115 13.9957 76.1115 13.6318C76.1115 13.3719 75.9425 13.255 75.0066 12.8131C74.3956 12.5402 73.9016 12.2933 73.9016 12.2673C73.9016 12.2413 74.2786 11.4096 74.7466 10.422C75.5655 8.71961 75.5915 8.62864 75.3966 8.32975C75.1756 7.99187 74.7986 7.9269 74.5646 8.1868Z" fill="black"/>
<path d="M31.5366 9.09646C31.4586 9.20042 31.3546 9.92816 31.3026 10.7339C31.2636 11.5266 31.1856 12.1763 31.1466 12.1763C31.1076 12.1763 30.5616 11.8775 29.9376 11.5266C28.6897 10.8118 28.2607 10.7339 27.9617 11.1497C27.7277 11.4876 27.7277 11.4746 29.0537 13.9177C30.0546 15.7371 30.3666 16.0489 30.8086 15.6851C31.1206 15.4252 31.0296 15.0353 30.3666 13.8657C30.0156 13.255 29.7556 12.7351 29.7686 12.7221C29.7946 12.6962 30.1846 12.8781 30.6526 13.138C31.9655 13.8787 32.1085 13.7878 32.2645 12.2283L32.3685 11.2017L33.0705 12.4622C33.7075 13.6058 33.8115 13.7358 34.1364 13.7358C34.3704 13.7358 34.5524 13.6448 34.6434 13.4629C34.7994 13.177 34.7214 12.9821 33.2525 10.357C32.5765 9.12245 32.4595 8.9925 32.0955 8.95351C31.8615 8.92752 31.6276 8.9925 31.5366 9.09646Z" fill="black"/>
<path d="M80.0763 12.0854C79.2963 12.4622 79.0754 12.6961 78.6984 13.5278C77.7624 15.6591 79.8943 17.9852 82.1562 17.3095C83.2482 16.9976 84.1711 15.815 84.1711 14.7364C84.1711 13.2549 82.9492 11.9814 81.4153 11.8385C80.8693 11.7865 80.5963 11.8385 80.0763 12.0854ZM82.1952 13.216C83.0792 13.7618 83.1962 14.9313 82.4292 15.75C81.8832 16.3218 81.2333 16.4518 80.5703 16.1139C79.5953 15.6201 79.3743 14.4635 80.1023 13.5928C80.6873 12.9041 81.4542 12.7741 82.1952 13.216Z" fill="black"/>
<path d="M23.5159 14.2036C22.8009 14.7364 22.19 15.2952 22.138 15.4381C22.06 15.6201 22.255 15.9709 22.9049 16.8286C24.7508 19.2587 24.9198 19.4537 25.2188 19.4537C25.5048 19.4537 27.9877 17.6603 28.1827 17.2965C28.3257 17.0495 28.0527 16.5947 27.7667 16.5947C27.6497 16.5947 27.0777 16.9456 26.5058 17.3614C25.5308 18.0892 25.4658 18.1282 25.2448 17.9202C24.6988 17.4264 24.7248 17.3095 25.5828 16.6467C26.4408 15.9709 26.5838 15.841 26.5838 15.5941C26.5838 15.4251 26.2328 15.0353 26.0768 15.0353C26.0118 15.0353 25.5698 15.3342 25.0888 15.698C24.1529 16.4128 24.0099 16.4258 23.6329 15.854C23.4639 15.5941 23.5159 15.5291 24.4909 14.7754C25.5178 13.9827 25.6998 13.6838 25.3878 13.3719C25.1018 13.086 24.8028 13.2159 23.5159 14.2036Z" fill="black"/>
<path d="M86.511 17.0626C85.7571 17.3874 85.0941 18.1412 84.8731 18.9079C84.4701 20.2854 85.1851 21.6369 86.706 22.3256C87.577 22.7285 87.902 22.6505 88.6169 21.9228C88.9939 21.5329 89.2409 21.1561 89.2409 20.9741C89.2409 20.6363 88.123 19.4537 87.798 19.4537C87.551 19.4537 87.291 19.7136 87.291 19.9605C87.291 20.0645 87.447 20.3114 87.642 20.5193C87.98 20.8702 87.98 20.8832 87.746 21.1431C87.395 21.5329 87.057 21.468 86.498 20.8962C86.0691 20.4803 85.9911 20.3114 85.9911 19.8565C85.9911 17.9462 88.409 17.3095 89.1629 19.0118C89.5269 19.8305 89.5789 19.9085 89.8649 19.9475C90.0339 19.9735 90.2159 19.8695 90.3459 19.6746C90.5409 19.3757 90.5409 19.2977 90.3589 18.8689C90.0339 18.0892 89.6439 17.6473 88.9419 17.2445C88.162 16.8026 87.265 16.7377 86.511 17.0626Z" fill="black"/>
<path d="M92.1398 22.4036C89.6309 24.4309 89.2409 24.8078 89.2409 25.1716C89.2409 25.5225 89.4359 25.6914 89.8389 25.6914C89.9429 25.6914 90.8398 25.0157 91.8408 24.184C93.7387 22.6116 93.9987 22.2347 93.4137 21.9228C93.0237 21.7149 92.9457 21.7539 92.1398 22.4036Z" fill="black"/>
<path d="M15.1053 22.2867C14.9753 22.4166 14.8843 22.6245 14.8843 22.7415C14.8843 23.1054 17.1462 27.5108 17.3672 27.5757C18.0042 27.7837 18.2512 27.2249 17.8742 26.4711L17.6012 25.9253L17.9132 25.5225C18.0952 25.2886 18.4332 24.8857 18.6672 24.6128L19.1091 24.106L19.7331 24.2619C20.2141 24.3919 20.3831 24.3919 20.5391 24.2619C20.7731 24.067 20.7991 23.5602 20.5781 23.3912C20.3441 23.2093 16.0673 22.0527 15.6513 22.0527C15.4693 22.0527 15.2223 22.1567 15.1053 22.2867ZM17.2632 23.5342L18.0042 23.7551L17.6012 24.2619C17.3672 24.5478 17.1332 24.7817 17.0682 24.7817C17.0162 24.7817 16.7822 24.4179 16.5612 23.989C16.3273 23.5082 16.2363 23.2093 16.3403 23.2483C16.4313 23.2873 16.8472 23.4172 17.2632 23.5342Z" fill="black"/>
<path d="M93.7257 26.978C92.5817 27.1729 91.5678 27.3678 91.4898 27.4198C91.2558 27.5628 91.2818 27.9656 91.5288 28.2255C91.6848 28.3815 91.8798 28.4075 92.3608 28.3425L92.9847 28.2645L93.5957 29.2132L94.2067 30.1618L93.9207 30.6946C93.7647 30.9805 93.6477 31.3314 93.6737 31.4614C93.7517 31.8122 94.1287 32.0201 94.3887 31.8642C94.7267 31.6433 97.3005 27.6407 97.3005 27.3159C97.3005 26.887 96.8976 26.6011 96.3126 26.6141C96.0396 26.6271 94.8696 26.783 93.7257 26.978ZM95.6496 28.1605C95.5326 28.3815 95.2986 28.7064 95.1426 28.9013L94.8696 29.2522L94.5057 28.7064C94.3107 28.4075 94.1807 28.1216 94.2197 28.0826C94.3237 27.9656 95.0776 27.7967 95.5196 27.7837L95.8836 27.7707L95.6496 28.1605Z" fill="black"/>
<path d="M11.5435 27.4978C10.6465 28.1476 10.2175 29.4471 10.6465 30.2138C10.8675 30.6297 11.4915 31.0195 11.9335 31.0195C12.4274 31.0195 12.7394 30.8376 13.5584 30.0839C14.2864 29.4341 14.4683 29.3561 14.7283 29.616C15.1183 30.0059 14.6633 30.8636 13.8314 31.2794C13.4154 31.5004 13.3244 31.6173 13.3244 31.9422C13.3244 32.7349 14.1434 32.592 15.0923 31.6173C15.8983 30.7856 16.1713 29.9799 15.8723 29.2912C15.3783 28.0956 14.0394 27.9527 13.0644 29.0053C12.4534 29.655 12.0635 29.876 11.7645 29.72C11.3225 29.4861 11.4525 29.0832 12.2324 28.3425C12.8564 27.7447 12.9344 27.6148 12.8044 27.3809C12.6094 27.017 12.1545 27.056 11.5435 27.4978Z" fill="black"/>
<path d="M49.6577 29.72C43.704 30.2528 38.0752 33.6315 34.6954 38.6997C33.5644 40.3891 26.8438 54.6969 26.7398 55.6196C26.6358 56.6852 27.2207 57.7638 28.1827 58.2706C28.4557 58.4136 29.0406 58.5045 29.9376 58.5435L31.2635 58.6085V63.4297C31.2635 68.8878 31.3025 69.1477 32.1735 70.2523C32.5375 70.7071 32.9275 71.019 33.5644 71.3309L34.4484 71.7597L38.3092 71.7987L42.183 71.8507V74.2288C42.183 76.607 42.183 76.62 42.521 77.0098C42.963 77.5426 43.678 77.5686 44.146 77.0748C44.4579 76.7499 44.4579 76.7109 44.4969 73.8C44.5229 71.9027 44.4839 70.6811 44.3929 70.3692C44.146 69.4985 44.042 69.4855 39.2582 69.4855C34.6564 69.4855 34.4224 69.4595 33.8894 68.7708C33.6034 68.4199 33.6034 68.355 33.6034 62.9229C33.6034 59.1673 33.5514 57.309 33.4604 57.0101C33.2395 56.3733 32.7325 56.2303 30.8346 56.2303C29.6646 56.2303 29.1706 56.1784 29.0796 56.0614C28.9757 55.9315 29.7296 54.2031 32.0955 49.1479C33.8244 45.4313 35.4364 42.0135 35.6833 41.5457C39.0632 34.8921 46.7198 31.0195 54.2595 32.1371C60.7852 33.0987 66.5049 37.829 68.6888 44.0538C69.4038 46.107 69.6638 47.6145 69.6638 49.7977C69.6508 52.7996 69.0528 55.1517 67.5839 57.9197C66.0889 60.7267 63.3461 63.6896 60.8632 65.1841C59.9662 65.7299 59.9792 65.6259 60.0182 71.4868L60.0572 76.7369L60.3692 77.0748C60.8372 77.5686 61.5522 77.5426 61.9941 77.0098L62.3321 76.607L62.3451 71.7857V66.9515L63.3071 66.2497C67.4799 63.2218 70.5737 58.4525 71.6527 53.3714C72.0037 51.695 71.9777 47.6535 71.6007 45.9381C69.2998 35.6458 60.0182 28.7843 49.6577 29.72Z" fill="black"/>
<path d="M8.25461 33.2417C8.00762 33.6965 8.34561 33.9694 10.3995 34.9181C12.6744 35.9837 13.1294 36.0487 13.1294 35.3209V34.8661L11.1145 33.9305C8.95658 32.9168 8.4756 32.7999 8.25461 33.2417Z" fill="black"/>
<path d="M74.5516 33.6445C74.1616 33.7875 73.5896 34.0864 73.3036 34.2813C72.7837 34.6322 71.5617 35.8927 71.5617 36.0747C71.5617 36.1786 74.3306 37.777 74.4996 37.777C74.5646 37.777 74.6946 37.6601 74.7726 37.5171C74.9676 37.2182 75.6175 36.8544 76.1765 36.7374L76.5665 36.6594L76.6055 35.009L76.6445 33.3586L75.9555 33.3716C75.5785 33.3716 74.9416 33.4886 74.5516 33.6445Z" fill="black"/>
<path d="M50.0477 34.3983C45.9789 34.8401 42.586 36.2956 40.0772 38.6607C37.7373 40.8699 36.6193 43.3 36.7493 45.8601L36.8143 46.8737L35.9173 48.1992C35.4364 48.94 35.0334 49.6677 35.0334 49.8367C35.0334 50.0316 35.4884 50.6424 36.3723 51.617C37.1003 52.4227 37.7893 53.2414 37.8933 53.4363C38.0622 53.7612 38.0622 53.8132 37.7763 54.0341C37.6073 54.1641 37.3343 54.281 37.1523 54.281C36.4893 54.281 36.2943 54.7099 35.8263 57.062C35.3584 59.4402 35.3584 59.96 35.8393 61.0646C35.9823 61.3895 36.2423 61.7923 36.4113 61.9613C36.5803 62.1172 36.7233 62.3511 36.7233 62.4551C36.7233 62.572 36.4893 63.1308 36.1903 63.7026C35.7354 64.5993 35.6704 64.8202 35.7354 65.314C35.8913 66.4966 36.8143 67.3283 38.1532 67.4843C39.2322 67.6012 49.8007 66.0678 50.6977 65.6649C52.2316 64.9762 52.9726 63.8196 53.2326 61.7143L53.4015 60.4278L54.9615 60.3368C55.8194 60.2979 57.0024 60.2589 57.5874 60.2589C61.7342 60.2589 65.634 56.9971 67.1419 52.2668C67.5449 51.0322 67.6359 48.5631 67.3499 46.9387C66.8299 43.8978 65.543 41.4157 63.3201 39.1155C60.6682 36.3605 57.2754 34.7361 53.6225 34.4762C51.3736 34.3073 50.9317 34.2943 50.0477 34.3983ZM55.1955 36.3346C59.7193 37.3612 63.4501 40.519 65.062 44.6905C66.3879 48.1343 66.193 51.3051 64.464 54.1641C63.2161 56.2173 61.6432 57.5948 59.7063 58.2836C58.8353 58.5955 58.5623 58.6215 56.1704 58.6734L53.5835 58.7254L53.6745 58.0367C53.8825 56.1134 53.8955 55.7365 53.7655 55.2297C53.5575 54.476 53.1026 53.9822 52.3096 53.6313C51.0876 53.1115 49.7227 53.2804 48.9687 54.0601C48.3968 54.6579 48.1628 55.3077 48.1628 56.3213C48.1628 58.2316 48.1628 58.2316 42.0791 58.5955C39.4272 58.7514 37.2303 58.8554 37.1913 58.8164C37.1393 58.7514 37.7113 55.9834 37.8023 55.8925C37.8283 55.8535 38.1142 55.6975 38.4262 55.5416C39.0632 55.2167 39.5312 54.6059 39.6612 53.9172C39.7912 53.2414 39.3102 52.3967 37.9583 50.9283L36.8533 49.7197L37.6593 48.5241L38.4652 47.3286L38.4262 45.8991C38.4002 44.7685 38.4522 44.3007 38.6602 43.6249C39.5052 40.9219 42.2611 38.3748 45.7709 37.0493C46.8238 36.6594 48.4228 36.2566 49.5407 36.1006C50.8667 35.9057 53.8825 36.0357 55.1955 36.3346ZM51.9716 55.2817C52.2056 55.4896 52.2186 55.6196 52.1406 56.7761C52.0106 58.7904 51.5556 62.2212 51.3346 62.8189C51.1006 63.4687 50.4247 64.0925 49.7617 64.2874C48.9167 64.5213 39.5702 65.8468 38.7382 65.8468C37.8933 65.8468 37.3733 65.6129 37.3733 65.2231C37.3733 65.1061 37.5943 64.5733 37.8543 64.0535C38.5432 62.702 38.5432 61.9613 37.8543 61.1685L37.3603 60.5838L38.0492 60.5058C38.4262 60.4538 40.5841 60.3239 42.833 60.1939C45.2769 60.0639 47.1488 59.908 47.4868 59.804C48.1108 59.5961 48.1368 59.6611 47.7728 60.3758C47.4868 60.9606 46.9668 61.4025 46.4859 61.5064C46.3039 61.5454 46.0179 61.5974 45.8619 61.6364C45.4069 61.7273 45.2379 62.1562 45.4979 62.559C45.7059 62.8579 45.7709 62.8839 46.3689 62.8189C47.6168 62.663 48.6568 61.7403 49.1507 60.3628C49.3847 59.7131 49.8527 56.8021 49.8527 56.0094C49.8527 55.2037 50.2297 54.8788 51.0746 54.9828C51.4256 55.0218 51.8286 55.1517 51.9716 55.2817Z" fill="black"/>
<path d="M48.2668 39.6484C46.7718 40.1812 45.6539 41.1688 45.4329 42.1435C45.2639 42.8972 45.4979 43.391 46.5249 44.4176C47.7208 45.6262 47.9678 46.263 47.8638 47.8354C47.8248 48.4072 47.7598 49.005 47.7078 49.1609C47.6038 49.5118 47.9418 49.8627 48.3708 49.8627C48.9037 49.8627 49.1247 49.1479 49.1377 47.5235C49.1377 46.224 49.1117 46.107 48.7088 45.2753C48.4228 44.7165 47.9678 44.0798 47.4348 43.547C46.9798 43.0921 46.6028 42.6243 46.6028 42.4943C46.6028 42.1305 47.6948 41.2078 48.4748 40.9089C48.8777 40.753 49.4887 40.636 49.8267 40.636C50.1647 40.636 50.5807 40.558 50.7627 40.4671C51.1266 40.2851 51.2566 39.8043 51.0226 39.5184C50.7627 39.2195 49.2937 39.2845 48.2668 39.6484Z" fill="black"/>
<path d="M41.3121 43.8849C39.8172 44.2098 39.3882 45.5613 40.2202 47.3286C40.6751 48.3033 40.7271 48.966 40.4151 49.7068C40.0772 50.5125 40.1292 51.2402 40.5581 51.682C41.6891 52.8516 43.743 52.6047 45.1469 51.1103C45.9919 50.2266 46.2649 49.4728 46.1869 48.3423C46.0439 46.4839 45.0949 45.0155 43.574 44.2877C42.703 43.8719 41.9751 43.7419 41.3121 43.8849ZM42.625 45.1974C42.898 45.2754 43.405 45.5873 43.743 45.9121C44.9389 47.0297 45.3289 48.7711 44.627 49.8367C43.977 50.8114 42.2611 51.4741 41.6111 50.9933C41.3771 50.8244 41.3771 50.7984 41.6631 49.9407C42.0271 48.8231 41.9751 48.1343 41.4291 47.0037C40.9611 46.0551 40.9091 45.6392 41.2341 45.2884C41.4681 45.0285 41.8971 44.9895 42.625 45.1974Z" fill="black"/>
<path d="M99.2504 36.0747C97.9505 36.4775 97.1705 37.4522 97.1705 38.6997C97.1705 40.4021 98.3535 41.6756 99.9654 41.6756C102.11 41.6756 103.371 39.4924 102.37 37.5301C101.798 36.3995 100.381 35.7368 99.2504 36.0747ZM100.81 37.4522C101.59 37.855 101.824 38.9596 101.291 39.7393C100.394 41.0649 98.2495 40.4671 98.2885 38.8946C98.3145 37.6081 99.6404 36.8544 100.81 37.4522Z" fill="black"/>
<path d="M80.0763 37.0233C79.2964 37.4522 78.6334 37.816 78.6204 37.829C78.6074 37.842 78.6594 38.0889 78.7504 38.3878C78.8544 38.7647 78.8544 39.1026 78.7504 39.5184L78.6204 40.1162L80.0114 40.8959C80.7783 41.3248 81.4543 41.6756 81.5323 41.6756C81.9873 41.6756 82.4552 39.3625 82.2342 38.1409C82.0913 37.2962 81.7143 36.2176 81.5843 36.2176C81.5453 36.2176 80.8693 36.5815 80.0763 37.0233Z" fill="black"/>
<path d="M6.6947 37.0493C6.6167 37.1533 6.56471 37.3742 6.59071 37.5431C6.6297 37.8031 6.85069 37.92 8.25463 38.4008C10.0875 39.0246 10.3995 39.2585 10.2825 39.9733C10.1915 40.5711 9.73656 41.0259 9.24258 41.0259C9.02159 41.0259 8.20263 40.818 7.43567 40.5711C5.81074 40.0512 5.48576 40.0902 5.55075 40.792C5.58975 41.1818 5.62875 41.2078 7.08468 41.7016C8.8526 42.2864 9.68456 42.3384 10.3475 41.8966C11.2835 41.2858 11.6865 39.5574 11.1275 38.6348C10.7895 38.1019 10.3345 37.842 8.74861 37.3092C7.27967 36.8154 6.92869 36.7764 6.6947 37.0493Z" fill="black"/>
<path d="M75.8905 37.7251C75.4875 37.92 75.0715 38.5828 75.0715 39.0116C75.0715 39.3365 75.4225 39.9473 75.7475 40.1682C76.3195 40.5711 77.4894 40.3111 77.8014 39.7394C77.8664 39.5964 77.9314 39.2455 77.9314 38.9596C77.9314 37.92 76.8265 37.2573 75.8905 37.7251Z" fill="black"/>
<path d="M73.9666 40.4411C71.4317 41.8836 71.5487 41.8056 71.7047 42.0785C72.3937 43.365 74.6166 44.6646 76.1375 44.6646H76.6315V43.0012V41.3378L76.0465 41.1818C75.7215 41.1038 75.2405 40.8309 74.9676 40.584L74.4866 40.1422L73.9666 40.4411Z" fill="black"/>
<path d="M101.46 44.0927C99.1985 44.4826 99.1465 44.4956 99.0035 44.7685C98.8215 45.1064 99.2115 47.0947 99.5884 47.7444C100.29 48.953 101.954 49.3688 103.189 48.6541C104.307 47.9913 104.671 46.9647 104.385 45.2233C104.281 44.6126 104.138 44.0408 104.047 43.9368C103.852 43.7029 103.592 43.7159 101.46 44.0927ZM103.332 45.3403C103.592 46.3409 103.267 47.3026 102.565 47.6015C101.681 47.9653 100.81 47.7184 100.42 46.9907C100.303 46.7958 100.03 45.5872 100.082 45.5612C100.082 45.5612 100.654 45.4573 101.33 45.3273C103.033 44.9894 103.228 44.9894 103.332 45.3403Z" fill="black"/>
<path d="M5.68073 44.6776C3.87381 45.5742 3.53582 48.1083 5.04376 49.4338C6.57768 50.7723 8.93058 50.0576 9.50255 48.0823C9.68454 47.4715 9.69754 47.1986 9.58055 46.6788C9.46355 46.107 9.47655 46.0031 9.69754 45.7562C10.2175 45.1974 9.84054 44.6386 9.12557 44.8985C8.76158 45.0284 8.61859 45.0024 8.07262 44.7295C7.26665 44.3267 6.43469 44.3007 5.68073 44.6776ZM7.66963 45.8341C7.72163 45.9121 7.57864 46.133 7.35765 46.3409C6.90267 46.7568 6.90267 46.7828 7.08466 47.1467C7.22765 47.4066 7.78663 47.4845 7.92962 47.2636C7.96862 47.1986 8.12461 47.0687 8.26761 47.0037C8.4886 46.8738 8.5146 46.9127 8.5146 47.4066C8.5146 47.8354 8.4366 48.0173 8.07262 48.3812C7.68263 48.7711 7.55264 48.823 6.91567 48.823C6.3307 48.823 6.12271 48.7581 5.79772 48.4982C5.27774 48.0563 5.06975 47.4066 5.26475 46.8088C5.49873 46.081 6.07071 45.7042 6.88967 45.7042C7.27965 45.7042 7.63064 45.7692 7.66963 45.8341Z" fill="black"/>
<path d="M75.3705 46.302C73.2386 47.0687 73.2906 50.4994 75.4485 51.1362C76.1635 51.3571 77.5934 51.3311 78.1654 51.0972C79.3613 50.5904 79.9203 49.4468 79.6213 48.1083C79.4263 47.2506 79.0494 46.7698 78.2694 46.4059C77.4894 46.0421 76.2415 46.0031 75.3705 46.302ZM78.2044 47.0687C79.4263 47.7055 79.3873 49.7587 78.1264 50.3695C77.6064 50.6294 76.4235 50.7074 75.7735 50.5254C75.4875 50.4475 75.0845 50.2135 74.8765 49.9926C74.5776 49.6807 74.4996 49.4728 74.4606 48.862C74.3956 47.7574 74.8375 47.1337 75.8645 46.8608C76.4625 46.7178 77.7234 46.8218 78.2044 47.0687Z" fill="black"/>
<path d="M101.187 51.721C100.043 52.3318 99.4585 53.9692 99.9524 55.2297C100.667 57.114 102.942 57.6728 104.398 56.3343C105.841 55.0088 105.568 52.6956 103.852 51.721C103.137 51.3051 101.967 51.3181 101.187 51.721ZM103.358 52.7996C104.489 53.3324 104.463 55.0998 103.332 55.6456C102.812 55.8925 102.357 55.8925 101.785 55.6586C101.213 55.4117 100.901 54.9048 100.901 54.2291C100.901 52.9685 102.162 52.2408 103.358 52.7996Z" fill="black"/>
<path d="M78.2564 52.7996C77.1905 53.4624 77.0735 53.5014 76.9565 53.2934C76.5275 52.5397 75.7605 52.2408 74.9546 52.5137C74.1876 52.7606 73.9666 53.2025 73.9276 54.6839L73.8756 55.9705H76.7485H79.6213V55.6456C79.6213 55.3207 79.6083 55.3207 78.4384 55.3207H77.2685L77.3075 54.7099L77.3465 54.0991L78.4774 53.4494C79.4784 52.8646 79.6213 52.7476 79.6213 52.4227C79.6213 52.2278 79.5823 52.0719 79.5304 52.0719C79.4654 52.0719 78.9064 52.3968 78.2564 52.7996ZM76.3585 53.4494C76.5665 53.7093 76.6315 53.9822 76.6315 54.554V55.3207H75.5265H74.4216V54.8269C74.4216 54.1381 74.6556 53.3974 74.9156 53.2544C75.0326 53.1765 75.3575 53.1115 75.6175 53.1115C75.9815 53.1115 76.1505 53.1895 76.3585 53.4494Z" fill="black"/>
<path d="M6.49969 52.7606C6.2787 52.9425 6.03172 53.4234 5.81073 54.0731C5.43374 55.1777 5.16076 55.4896 4.82277 55.2037C4.56278 54.9828 4.56278 54.2031 4.80977 53.7612C5.06976 53.3064 5.04376 52.8776 4.74478 52.7216C4.1468 52.3967 3.57483 53.3194 3.57483 54.5929C3.57483 56.0224 4.75777 56.8931 5.88872 56.3083C6.3177 56.0874 6.4737 55.8145 6.86368 54.6059C7.16266 53.6703 7.40965 53.4364 7.79963 53.7612C8.07262 53.9952 8.03362 54.8528 7.72164 55.4636C7.39665 56.1264 7.43565 56.5422 7.83863 56.5942C8.5536 56.6982 9.09958 55.5806 9.00858 54.2031C8.95658 53.3974 8.91758 53.3064 8.4756 52.9035C7.87763 52.3448 7.04567 52.2798 6.49969 52.7606Z" fill="black"/>
<path d="M73.9016 58.8944V60.5188H76.7615H79.6213V58.8944V57.27H79.2964H78.9714V58.5695V59.882L77.9704 59.843L76.9565 59.8041L76.9175 58.5955C76.8915 57.5169 76.8525 57.3999 76.6315 57.3999C76.4105 57.3999 76.3715 57.5169 76.3455 58.5955L76.3065 59.8041H75.3965H74.4866L74.4476 58.5305C74.4216 57.3739 74.3956 57.27 74.1616 57.27C73.9146 57.27 73.9016 57.3609 73.9016 58.8944Z" fill="black"/>
<path d="M8.25461 58.7515C8.13761 58.9074 8.13761 59.2193 8.26761 60.1939C8.4496 61.5714 8.4106 61.6884 7.72163 61.6884C7.33165 61.6884 7.29265 61.5974 7.14966 60.3499C7.01967 59.3363 6.59068 58.9204 6.1747 59.4142C6.04471 59.5702 6.03171 59.8561 6.13571 60.6878C6.2137 61.2725 6.2397 61.7924 6.2137 61.8443C6.1877 61.9093 5.94071 61.9483 5.66773 61.9483H5.18675L5.01776 60.7527C4.86176 59.5052 4.73177 59.2193 4.35479 59.2193C3.84781 59.2193 3.79581 59.5052 4.0298 61.1946C4.27679 62.9749 4.36779 63.2478 4.78377 63.2478C5.32974 63.2478 8.96958 62.715 9.26856 62.5981C9.47655 62.5071 9.55455 62.3642 9.55455 62.0913C9.55455 61.4025 9.13857 58.8944 9.00857 58.7255C8.82658 58.5175 8.4496 58.5305 8.25461 58.7515Z" fill="black"/>
<path d="M99.7314 59.5831C99.2115 60.1549 99.6404 60.4408 101.369 60.7267C102.136 60.8437 102.721 60.9996 102.669 61.0516C102.617 61.1036 101.785 61.5714 100.849 62.0782C99.4845 62.806 99.1075 63.0789 99.0425 63.3388C98.8995 63.9106 99.1985 64.0405 101.616 64.4174C103.605 64.7423 103.904 64.7553 104.164 64.5993C104.489 64.3914 104.528 64.1835 104.281 63.8456C104.164 63.6897 103.722 63.5597 102.734 63.4167C101.967 63.2998 101.369 63.1568 101.408 63.1049C101.447 63.0399 102.201 62.611 103.085 62.1432C104.749 61.2595 105.048 60.9866 104.918 60.4538C104.827 60.077 104.84 60.077 102.292 59.6741C99.7834 59.2842 99.9914 59.2972 99.7314 59.5831Z" fill="black"/>
<path d="M74.6166 61.9743C74.0836 62.3901 73.9016 62.9619 73.9016 64.2225V65.3271H76.7615H79.6213V65.0022C79.6213 64.6773 79.6083 64.6773 78.5294 64.6773H77.4504L77.3595 63.8196C77.3075 63.3388 77.1775 62.78 77.0735 62.5721C76.6445 61.7274 75.3315 61.4155 74.6166 61.9743ZM76.4235 62.728C76.6185 62.9099 76.6965 63.2088 76.7355 63.8326L76.7875 64.6773H75.6045H74.4216L74.4346 64.1185C74.4346 63.3388 74.6946 62.702 75.0716 62.5071C75.4745 62.2862 76.0985 62.3901 76.4235 62.728Z" fill="black"/>
<path d="M6.59071 65.613C6.35672 65.6909 5.99274 65.9509 5.78475 66.1978C5.45976 66.5616 5.39477 66.7436 5.40777 67.3154C5.40777 67.6922 5.53776 68.433 5.69375 68.9658C5.96674 69.8754 6.00574 69.9404 6.36972 69.9794C6.8637 70.0184 10.6855 68.9268 10.9585 68.6669C11.2055 68.42 11.0755 67.8352 10.7505 67.7702C10.6335 67.7312 10.2695 67.7832 9.94456 67.8742C9.63257 67.9651 9.35959 68.0301 9.35959 68.0171C9.34659 68.0041 9.26859 67.7312 9.17759 67.4063C8.74861 65.8989 7.77366 65.2231 6.59071 65.613ZM7.82566 66.9125C7.90365 67.0035 8.04665 67.3543 8.16364 67.6922L8.35863 68.303L7.66966 68.5109C6.74671 68.7708 6.75971 68.7708 6.59071 68.199C6.38272 67.5233 6.39572 67.2764 6.65571 66.9905C6.9027 66.7176 7.64366 66.6786 7.82566 66.9125Z" fill="black"/>
<path d="M77.4115 66.6656C77.2035 66.7696 76.9045 67.1984 76.5535 67.9132C75.9815 69.0697 75.7215 69.3556 75.2406 69.3556C74.5386 69.3556 74.2136 68.433 74.5386 67.3024C74.6426 66.9515 74.6296 66.8605 74.4216 66.7566C74.1096 66.5876 73.9536 66.8475 73.8236 67.7702C73.7196 68.5889 74.0186 69.4856 74.4866 69.7975C74.9416 70.0964 75.7475 70.0574 76.1765 69.7195C76.3715 69.5636 76.7485 68.9658 77.0215 68.368C77.4635 67.4323 77.5675 67.2894 77.9184 67.2114C78.9584 66.9905 79.3744 68.1341 78.8934 69.8365C78.8284 70.0964 78.8674 70.1353 79.1404 70.1353C79.4264 70.1353 79.4914 70.0574 79.5824 69.6415C79.7644 68.7968 79.6604 67.7052 79.3744 67.2374C78.9454 66.5486 78.1264 66.3017 77.4115 66.6656Z" fill="black"/>
<path d="M102.539 67.5623C102.461 67.6532 102.318 67.9781 102.227 68.29C102.11 68.6929 102.019 68.8228 101.863 68.7708C101.746 68.7448 100.875 68.4719 99.9134 68.173L98.1845 67.6402L97.9115 67.9001C97.6905 68.1211 97.6645 68.225 97.7815 68.4849C97.8985 68.7318 98.2495 68.8878 99.7184 69.3426C100.719 69.6545 101.564 69.9274 101.616 69.9534C101.655 69.9794 101.603 70.3043 101.486 70.6551C101.291 71.2919 101.291 71.3179 101.551 71.5778C102.045 72.0846 102.292 71.7597 102.89 69.8624C103.501 67.9391 103.514 67.4973 103.007 67.4323C102.825 67.4063 102.617 67.4713 102.539 67.5623Z" fill="black"/>
<path d="M73.9016 72.6044V74.1639H76.7615H79.6213V72.6044V71.045H79.2964C78.9714 71.045 78.9714 71.045 78.9714 72.2796V73.5141H77.9314H76.8915V72.3445C76.8915 71.2659 76.8785 71.175 76.6315 71.175C76.3845 71.175 76.3715 71.2659 76.3715 72.3445V73.5141H75.3965H74.4216V72.2796C74.4216 71.136 74.4086 71.045 74.1616 71.045C73.9146 71.045 73.9016 71.136 73.9016 72.6044Z" fill="black"/>
<path d="M96.6506 73.0723C94.9736 73.8 94.3627 75.8923 95.3766 77.4257C95.7536 77.9975 96.8975 78.5823 97.6125 78.5823C98.1715 78.5823 99.1464 78.2054 99.5494 77.8285C100.03 77.3997 100.42 76.4251 100.42 75.6713C100.42 74.8006 100.303 74.4628 99.7444 73.839C98.9645 72.9423 97.6775 72.6304 96.6506 73.0723ZM98.1065 74.1639C98.6785 74.3328 99.2114 74.9176 99.3284 75.5154C99.5234 76.594 98.4055 77.5816 97.3135 77.2827C96.6116 77.1008 96.0006 76.3861 96.0006 75.7493C96.0006 75.1255 96.4166 74.4628 96.9495 74.2289C97.4565 74.0079 97.5085 74.0079 98.1065 74.1639Z" fill="black"/>
<path d="M12.7134 74.8136C12.5184 75.3075 12.4924 75.3205 11.8425 75.3594C11.2055 75.3984 11.1795 75.4114 11.1795 75.7883C11.1795 76.1522 11.2185 76.1781 11.7125 76.2431C12.2324 76.3081 12.2324 76.3081 12.1284 76.7369C12.0375 77.0748 11.9595 77.1528 11.7905 77.0878C11.0365 76.7759 10.8675 76.7369 10.5425 76.8149C9.93155 76.9709 9.55457 77.4517 9.55457 78.0884C9.55457 79.0631 10.2435 79.7908 11.1535 79.7908C11.5955 79.7908 11.7515 79.7129 12.1154 79.323L12.5444 78.8422L12.9864 79.0501C13.5714 79.336 14.2214 79.206 14.7023 78.6992C15.0143 78.3743 15.0793 78.2054 15.0663 77.6856C15.0533 76.9319 14.6633 76.2431 14.0264 75.8533C13.6234 75.5934 13.5844 75.5284 13.6624 75.1255C13.8314 74.2159 13.0514 73.9559 12.7134 74.8136ZM13.7014 76.8149C14.2474 77.3867 13.8834 78.1924 13.1684 78.0235L12.8434 77.9325L13.0384 77.2178C13.1424 76.8279 13.2724 76.503 13.3244 76.503C13.3764 76.503 13.5454 76.646 13.7014 76.8149ZM11.3875 77.8805C11.7645 78.0625 11.7775 78.1014 11.5955 78.3614C11.3745 78.6992 10.9195 78.8032 10.6465 78.5823C10.4125 78.3743 10.4125 78.1274 10.6725 77.8805C10.9195 77.6206 10.9065 77.6206 11.3875 77.8805Z" fill="black"/>
<path d="M92.2568 79.7129C91.5028 80.7005 90.8008 81.8181 90.8008 82.065C90.8008 82.4029 91.1128 82.6498 91.4118 82.5588C91.5418 82.5198 91.9318 82.078 92.2698 81.5712C92.6078 81.0774 92.9587 80.6615 93.0237 80.6615C93.1017 80.6615 93.8427 81.1293 94.6617 81.7011C95.5066 82.2729 96.3126 82.7408 96.4816 82.7408C96.8846 82.7408 97.1576 82.195 96.9106 81.8961C96.5856 81.5062 93.1667 79.232 92.9067 79.232C92.7508 79.232 92.4778 79.44 92.2568 79.7129Z" fill="black"/>
<path d="M17.3802 84.1832C15.6773 85.0279 15.3003 87.1202 16.5872 88.5236C17.2502 89.2384 17.8482 89.5113 18.7191 89.5113C19.5771 89.5113 20.2011 89.2384 20.786 88.5886C21.748 87.523 21.735 86.0805 20.747 84.937C19.9021 83.9363 18.5112 83.6244 17.3802 84.1832ZM19.6161 85.3528C20.6171 86.1325 20.5001 87.588 19.3951 88.1598C18.3162 88.7056 16.9642 87.9389 16.9642 86.7693C16.9642 86.2365 17.6012 85.3658 18.1342 85.1709C18.5891 85.0019 19.2781 85.0929 19.6161 85.3528Z" fill="black"/>
<path d="M88.656 84.742C87.382 85.3008 86.6281 86.6263 86.927 87.7959C87.044 88.2507 87.265 88.5756 87.863 89.1864C89.0589 90.382 90.1379 90.5639 91.1908 89.7842C92.1008 89.0954 92.4908 88.4327 92.4908 87.536C92.4908 86.7953 92.1788 86.2235 91.3858 85.4957C90.4369 84.625 89.5009 84.3651 88.656 84.742ZM90.2939 86.1455C91.0869 86.7693 91.3858 87.2111 91.3858 87.8219C91.3858 88.2637 91.3078 88.4197 90.9569 88.7316C90.3719 89.2514 89.8129 89.2384 89.0849 88.6796C87.876 87.7569 87.642 86.9122 88.383 86.1715C88.9809 85.5737 89.5399 85.5737 90.2939 86.1455Z" fill="black"/>
<path d="M92.2048 89.4203C91.9708 89.7452 91.7238 91.4476 91.9188 91.4346C91.9838 91.4346 92.1918 91.2397 92.3998 90.9927C92.7248 90.6029 92.7508 90.4989 92.6728 89.8362C92.6208 89.4333 92.5428 89.1084 92.5038 89.1084C92.4648 89.1084 92.3218 89.2514 92.2048 89.4203Z" fill="black"/>
<path d="M23.2689 89.7192C21.891 90.4339 21.371 91.9674 22.021 93.3189C22.268 93.8127 23.4509 94.9433 24.2049 95.3851C24.5039 95.5671 24.8159 95.2812 26.2068 93.5398C27.5587 91.8504 27.7407 91.5515 27.5197 91.2526C27.3118 90.9667 26.1028 90.0311 25.5828 89.7712C24.9199 89.4463 23.8409 89.4073 23.2689 89.7192ZM25.6088 91.0577C25.8948 91.2526 26.1288 91.4866 26.1288 91.5645C26.1288 91.7335 24.3479 94.0336 24.2179 94.0466C24.1659 94.0466 23.8539 93.7997 23.5289 93.4878C23.022 92.994 22.944 92.8511 22.944 92.3702C22.944 91.5905 23.2559 91.0837 23.8929 90.7978C24.5429 90.5119 24.8939 90.5639 25.6088 91.0577Z" fill="black"/>
<path d="M83.2612 89.8752C82.0912 90.239 80.9213 91.4866 80.9213 92.3703C80.9213 92.6952 81.8573 93.9817 82.1822 94.1116C82.4292 94.2026 83.7162 93.3709 83.9112 92.994C84.2491 92.3703 83.5732 92.0584 82.9492 92.5392L82.5072 92.8771L82.2862 92.5392C82.0912 92.2403 82.0912 92.1494 82.2342 91.8765C82.6892 91.0318 83.9112 90.7199 84.6521 91.2657C85.9261 92.2013 85.5751 93.9817 84.0282 94.3196C83.3652 94.4755 83.1312 94.6444 83.1312 94.9693C83.1312 95.3202 83.6252 95.6061 84.0931 95.5151C85.5101 95.2422 86.641 93.9427 86.641 92.5912C86.628 90.8758 84.8081 89.4073 83.2612 89.8752Z" fill="black"/>
<path d="M77.6975 93.5529C77.3985 93.8517 77.5545 94.2416 78.7244 96.2169C79.8164 98.0362 79.9464 98.2052 80.2843 98.2052C80.7523 98.2052 80.9993 97.8153 80.7783 97.3865C80.3883 96.6327 78.5164 93.5788 78.3994 93.5009C78.1914 93.3579 77.8665 93.3839 77.6975 93.5529Z" fill="black"/>
<path d="M29.6256 93.7737C29.1317 94.0726 28.7677 94.5535 27.9747 95.957C27.2857 97.1525 27.2077 97.6333 27.6627 97.8023C27.8187 97.8673 28.0267 97.8803 28.1177 97.8413C28.2087 97.8153 28.6117 97.2175 29.0147 96.5287C29.4176 95.84 29.8596 95.1512 30.0026 94.9823C30.3796 94.5795 31.0036 94.6054 31.5236 95.0473C31.8875 95.3462 31.9395 95.4501 31.8745 95.866C31.8485 96.1389 31.4846 96.9186 31.0816 97.6074C30.2886 98.9849 30.2106 99.2967 30.6136 99.5047C31.1076 99.7646 31.3676 99.5177 32.2255 97.9712C32.9665 96.6587 33.0835 96.3598 33.0835 95.801C33.0835 94.9303 32.6675 94.3195 31.7575 93.8647C30.9516 93.4619 30.1846 93.4359 29.6256 93.7737Z" fill="black"/>
<path d="M73.0956 95.918C71.9647 96.2168 70.9117 97.3734 71.2497 97.9192C71.5097 98.3351 71.8347 98.2571 72.3937 97.6463C72.7837 97.2175 73.0696 97.0356 73.4336 96.9706C74.4606 96.7756 75.3315 97.5814 75.3315 98.7249C75.3315 99.7256 74.6946 100.284 73.5376 100.284C72.8747 100.284 72.6017 100.44 72.6017 100.83C72.6017 101.233 73.1866 101.493 73.9016 101.415C75.4095 101.233 76.6315 100.011 76.6315 98.686C76.6315 97.5164 75.7215 96.2558 74.6426 95.931C73.8756 95.71 73.8886 95.71 73.0956 95.918Z" fill="black"/>
<path d="M37.1523 96.9316C37.0743 97.0225 36.6973 97.8542 36.3333 98.7899C35.9693 99.7126 35.6444 100.492 35.6314 100.518C35.6054 100.531 35.3194 100.44 34.9814 100.323C34.3054 100.076 33.9544 100.167 33.8894 100.635C33.8374 100.999 34.0324 101.116 35.8784 101.844C37.5683 102.52 37.9453 102.559 38.0883 102.091C38.2052 101.74 37.9843 101.506 37.2953 101.246C36.9703 101.129 36.7363 100.96 36.7623 100.882C38.0233 97.7893 38.1922 97.2695 38.0623 97.0615C37.8933 96.7886 37.3343 96.7107 37.1523 96.9316Z" fill="black"/>
<path d="M68.3378 97.8413C68.2728 97.9322 68.1559 98.2701 68.0909 98.582L67.9869 99.1538L66.8819 99.4657L65.777 99.7905L65.361 99.3097C65.036 98.9329 64.88 98.8419 64.581 98.8809C64.295 98.9069 64.204 98.9978 64.178 99.2707C64.139 99.5566 64.438 99.9855 65.712 101.545C66.5829 102.598 67.3759 103.52 67.4799 103.572C67.7269 103.715 68.2988 103.546 68.4418 103.286C68.5068 103.156 68.7148 101.948 68.9228 100.583C69.2218 98.491 69.2478 98.0752 69.1048 97.8932C68.8968 97.6463 68.5198 97.6203 68.3378 97.8413ZM67.7659 101.09C67.7139 101.545 67.6359 101.961 67.6229 102.039C67.5709 102.169 66.5439 100.843 66.5829 100.7C66.6089 100.622 67.4019 100.362 67.8049 100.297C67.8439 100.284 67.8309 100.648 67.7659 101.09Z" fill="black"/>
<path d="M41.9621 98.712C41.4681 99.0239 41.1431 99.5957 41.1431 100.141C41.1431 100.648 41.6631 101.246 42.521 101.727C43.405 102.234 43.548 102.403 43.353 102.741C43.275 102.896 43.093 103.013 42.95 103.013C42.664 103.013 41.7281 102.572 41.5981 102.364C41.4551 102.13 40.8961 102.221 40.7531 102.494C40.5581 102.87 40.7661 103.195 41.5071 103.624C41.9881 103.91 42.274 103.988 42.924 103.988C43.665 103.988 43.769 103.949 44.146 103.585C44.4449 103.286 44.5749 103.013 44.6139 102.611C44.6919 101.896 44.393 101.48 43.418 100.921C42.586 100.453 42.274 100.128 42.391 99.8426C42.586 99.3358 43.457 99.4787 44.224 100.154C44.6919 100.57 45.0299 100.635 45.2769 100.388C45.5369 100.128 45.4589 99.8426 45.0169 99.4137C44.094 98.543 42.729 98.2312 41.9621 98.712Z" fill="black"/>
<path d="M47.7468 99.6476C47.4088 99.8425 47.4478 100.401 47.8118 100.531C47.9678 100.596 48.6178 100.687 49.2547 100.739L50.3987 100.83L50.3207 101.363C50.2687 101.662 50.2167 101.922 50.1907 101.935C50.1647 101.961 49.6967 101.922 49.1248 101.857C47.9158 101.727 47.6038 101.831 47.6688 102.338C47.7078 102.727 47.9418 102.805 49.3717 102.961L50.1257 103.039L50.0867 103.507L50.0477 103.988L48.6568 103.949C47.3698 103.897 47.2658 103.923 47.1358 104.17C47.0188 104.378 47.0318 104.482 47.2268 104.677C47.5648 105.015 50.6977 105.34 50.9577 105.08C51.0747 104.963 51.2177 104.053 51.3606 102.585C51.5686 100.531 51.5816 100.258 51.3996 100.089C51.2827 99.9595 50.7627 99.8425 50.0347 99.7646C49.3977 99.6996 48.6698 99.6086 48.4228 99.5826C48.1758 99.5436 47.8638 99.5696 47.7468 99.6476Z" fill="black"/>
<path d="M57.4182 99.9731C56.8855 100.35 57.1194 101.064 57.782 101.064C58.1977 101.064 58.4316 100.843 58.4316 100.467C58.4316 100.155 58.1198 99.7653 57.8729 99.7653C57.782 99.7653 57.5741 99.8562 57.4182 99.9731Z" fill="black"/>
</svg>
